HIERARCHY
ROOT Hips
{
    OFFSET 0.000000 0.000000 0.000000
    CHANNELS 6 Xposition Yposition Zposition Zrotation Xrotation Yrotation
    JOINT Spine
    {
        OFFSET -0.000000 7.236184 0.000000
        CHANNELS 3 Zrotation Xrotation Yrotation
        JOINT Spine1
        {
            OFFSET -0.000000 20.420147 0.000000
            CHANNELS 3 Zrotation Xrotation Yrotation
            JOINT Neck
            {
                OFFSET -0.000000 20.336288 1.848754
                CHANNELS 3 Zrotation Xrotation Yrotation
                JOINT Head
                {
                    OFFSET -0.000000 12.354461 -1.764923
                    CHANNELS 3 Zrotation Xrotation Yrotation
                    End Site
                    {
                        OFFSET -0.000000 22.061537 0.000000
                    }
                }
            }
            JOINT LeftShoulder
            {
                OFFSET 3.573296 18.396038 -0.314103
                CHANNELS 3 Zrotation Xrotation Yrotation
                JOINT LeftArm
                {
                    OFFSET 10.880760 0.000000 0.000000
                    CHANNELS 3 Zrotation Xrotation Yrotation
                    JOINT LeftForeArm
                    {
                        OFFSET 27.185530 0.000000 0.000000
                        CHANNELS 3 Zrotation Xrotation Yrotation
                        JOINT LeftHand
                        {
                            OFFSET 27.825975 0.000000 0.000000
                            CHANNELS 3 Zrotation Xrotation Yrotation
                            End Site
                            {
                                OFFSET 13.236923 0.000000 0.000000
                            }
                        }
                    }
                }
            }
            JOINT RightShoulder
            {
                OFFSET -3.474926 18.396038 -0.314103
                CHANNELS 3 Zrotation Xrotation Yrotation
                JOINT RightArm
                {
                    OFFSET -10.880760 0.000000 0.000000
                    CHANNELS 3 Zrotation Xrotation Yrotation
                    JOINT RightForeArm
                    {
                        OFFSET -27.185530 0.000000 0.000000
                        CHANNELS 3 Zrotation Xrotation Yrotation
                        JOINT RightHand
                        {
                            OFFSET -27.825975 0.000000 0.000000
                            CHANNELS 3 Zrotation Xrotation Yrotation
                            End Site
                            {
                                OFFSET -13.236923 0.000000 0.000000
                            }
                        }
                    }
                }
            }
        }
    }
    JOINT LeftUpLeg
    {
        OFFSET 8.824615 0.000000 0.000000
        CHANNELS 3 Zrotation Xrotation Yrotation
        JOINT LeftLeg
        {
            OFFSET -0.000000 -35.111282 0.000000
            CHANNELS 3 Zrotation Xrotation Yrotation
            JOINT LeftFoot
            {
                OFFSET -0.000000 -42.324711 0.000000
                CHANNELS 3 Zrotation Xrotation Yrotation
                JOINT LeftToeBase
                {
                    OFFSET -0.000000 -5.735999 13.236923
                    CHANNELS 3 Zrotation Xrotation Yrotation
                    End Site
                    {
                        OFFSET -0.000000 0.000000 3.529846
                    }
                }
            }
        }
    }
    JOINT RightUpLeg
    {
        OFFSET -8.824615 0.000000 0.000000
        CHANNELS 3 Zrotation Xrotation Yrotation
        JOINT RightLeg
        {
            OFFSET -0.000000 -35.111282 0.000000
            CHANNELS 3 Zrotation Xrotation Yrotation
            JOINT RightFoot
            {
                OFFSET -0.000000 -42.324711 0.000000
                CHANNELS 3 Zrotation Xrotation Yrotation
                JOINT RightToeBase
                {
                    OFFSET -0.000000 -5.735999 13.236923
                    CHANNELS 3 Zrotation Xrotation Yrotation
                    End Site
                    {
                        OFFSET -0.000000 0.000000 3.529846
                    }
                }
            }
        }
    }
}
MOTION
Frames:    7
Frame Time:    0.008333
7.902206    77.788780    106.778511    3.729784    -11.682356    -169.908463    -1.375298    -9.057499    1.361800    3.408551    2.969312    1.382371    2.642658    9.214193    -6.839632    11.038609    -2.593432    -5.476178    -0.239948    16.545483    1.849386    -56.139103    32.186558    -28.952448    -0.119928    -2.687291    -12.900614    18.666607    -2.431020    1.642783    6.528007    17.886429    -9.574546    51.860722    33.306290    24.017855    -3.784376    -8.455860    23.880877    -20.290236    -7.107035    -3.133508    14.841360    -33.430069    6.568002    5.280703    41.026966    -0.672635    -11.174645    -13.501769    -15.352242    -0.544360    -1.345777    0.604884    -23.020380    -10.905080    -6.206693    2.730516    22.890423    0.243368    17.462584    -4.347120    -11.399053    1.439601    -5.880896    -1.570316
7.357539    77.922562    106.721878    3.898863    -11.710667    -169.869431    -1.315205    -9.111959    1.384583    3.527064    2.887306    1.400456    2.691143    9.236601    -6.984683    11.141105    -2.628747    -5.609915    -0.200277    16.517229    1.806087    -55.976341    32.543495    -28.980778    -0.112454    -2.932867    -13.171319    18.913319    -2.670489    1.654504    6.528244    17.887493    -9.608342    51.972450    33.079983    23.941597    -3.836192    -8.458249    23.861353    -20.340033    -7.096405    -3.141489    14.559784    -33.255657    6.408504    5.134833    40.835609    -0.657997    -10.808682    -13.841051    -15.137424    -0.515677    -1.191414    0.572849    -23.186428    -10.715495    -5.900889    2.714431    22.935347    0.236021    17.477674    -3.602119    -11.233967    1.457390    -6.149523    -1.590372
6.826057    78.063522    106.669067    4.061385    -11.735636    -169.834595    -1.254611    -9.161998    1.405460    3.641093    2.808388    1.416709    2.734906    9.264209    -7.120859    11.235546    -2.659829    -5.735621    -0.163390    16.482397    1.766305    -55.818584    32.883362    -29.007954    -0.107152    -3.174604    -13.426554    19.144150    -2.906438    1.666700    6.523883    17.888252    -9.637450    52.069187    32.878796    23.875751    -3.888199    -8.466272    23.865894    -20.374880    -7.089900    -3.155338    14.286011    -33.064396    6.241775    4.973305    40.614685    -0.642802    -10.433579    -14.142544    -14.909219    -0.488816    -1.050635    0.542869    -23.347486    -10.582274    -5.596742    2.696592    23.161800    0.262775    17.433872    -2.915091    -11.082573    1.469890    -6.416883    -1.604673
6.309951    78.209755    106.620117    4.216682    -11.755968    -169.802536    -1.194318    -9.206979    1.423855    3.750077    2.733231    1.430543    2.774320    9.298056    -7.248234    11.322204    -2.685550    -5.853463    -0.129471    16.442242    1.730467    -55.668026    33.200581    -29.034319    -0.104427    -3.408678    -13.661859    19.362190    -3.135005    1.679676    6.515489    17.888222    -9.662355    52.150208    32.704315    23.821053    -3.940380    -8.477033    23.894398    -20.394083    -7.084970    -3.173411    14.020758    -32.858494    6.069373    4.799793    40.368561    -0.628225    -10.054825    -14.406043    -14.671945    -0.463902    -0.925352    0.515083    -23.502344    -10.508668    -5.299307    2.676985    23.589428    0.323758    17.335680    -2.295601    -10.948069    1.478443    -6.686363    -1.614682
5.808472    78.360107    106.574821    4.364937    -11.770349    -169.771454    -1.134647    -9.246509    1.439206    3.853978    2.662418    1.441398    2.810182    9.338748    -7.367614    11.401365    -2.704828    -5.964356    -0.098808    16.398319    1.698705    -55.525364    33.491333    -29.061127    -0.104521    -3.632908    -13.874380    19.572344    -3.354011    1.693242    6.503883    17.887159    -9.683636    52.215672    32.555477    23.777592    -3.992961    -8.487633    23.946991    -20.397852    -7.078854    -3.194094    13.762644    -32.638878    5.891340    4.617658    40.100407    -0.614808    -9.673035    -14.634143    -14.428483    -0.440974    -0.815103    0.489526    -23.650951    -10.496267    -5.012187    2.655876    24.238052    0.418404    17.187702    -1.746620    -10.833389    1.484576    -6.964814    -1.622082
5.323489    78.512527    106.533180    4.505134    -11.777627    -169.739838    -1.076408    -9.279663    1.450873    3.951802    2.596267    1.448641    2.843035    9.386915    -7.479122    11.473334    -2.716967    -6.068494    -0.071466    16.352285    1.671303    -55.392231    33.751598    -29.088345    -0.107261    -3.844596    -14.061769    19.778162    -3.560684    1.707394    6.489898    17.884838    -9.701702    52.265717    32.432232    23.745270    -4.046196    -8.495914    24.023054    -20.386684    -7.069620    -3.215586    13.510822    -32.407749    5.708488    4.431701    39.814453    -0.602769    -9.294190    -14.827330    -14.184320    -0.419907    -0.720427    0.466060    -23.793131    -10.545453    -4.741448    2.633064    25.120811    0.545210    16.995729    -1.270648    -10.741041    1.490338    -7.257140    -1.629122
4.856154    78.665131    106.495155    4.636578    -11.776762    -169.706116    -1.020267    -9.305924    1.458307    4.043016    2.535439    1.451843    2.873346    9.442229    -7.583138    11.538318    -2.721319    -6.166369    -0.047076    16.305588    1.648272    -55.270184    33.978992    -29.116194    -0.112101    -4.041956    -14.222895    19.982773    -3.753196    1.721773    6.473907    17.880976    -9.717124    52.301395    32.333466    23.723555    -4.100189    -8.500190    24.121899    -20.361731    -7.055839    -3.236394    13.263919    -32.167267    5.521357    4.246869    39.515038    -0.592089    -8.919588    -14.988227    -13.943594    -0.400248    -0.640586    0.444175    -23.929304    -10.654454    -4.491810    2.608934    26.245293    0.702340    16.764954    -0.866207    -10.673359    1.497469    -7.566821    -1.637715
